HIERARCHY
ROOT Hips
{
	OFFSET	0.00	0.00	0.00
	CHANNELS 6 Xposition Yposition Zposition Zrotation Xrotation Yrotation
	JOINT LeftUpLeg
	{
		OFFSET	 0.126116	-0.014019	-0.065224
		CHANNELS 3 Zrotation Xrotation Yrotation
		JOINT LeftLeg
		{
			OFFSET	 0.000000	 0.000000	 0.569914
			CHANNELS 3 Zrotation Xrotation Yrotation
			JOINT LeftFoot
			{
				OFFSET	 0.000000	 0.000000	 0.544423
				CHANNELS 3 Zrotation Xrotation Yrotation
				JOINT LeftToeBase
				{
					OFFSET	 0.000000	 0.000000	 0.207117
					CHANNELS 3 Zrotation Xrotation Yrotation
					End Site
					{
						OFFSET	 0.000000	 0.000000	 0.207117
					}
				}
			}
		}
	}
	JOINT RightUpLeg
	{
		OFFSET	-0.124023	-0.008373	-0.065224
		CHANNELS 3 Zrotation Xrotation Yrotation
		JOINT RightLeg
		{
			OFFSET	 0.000000	 0.000000	 0.570047
			CHANNELS 3 Zrotation Xrotation Yrotation
			JOINT RightFoot
			{
				OFFSET	 0.000000	 0.000000	 0.544354
				CHANNELS 3 Zrotation Xrotation Yrotation
				JOINT RightToeBase
				{
					OFFSET	 0.000000	 0.000000	 0.207540
					CHANNELS 3 Zrotation Xrotation Yrotation
					End Site
					{
						OFFSET	 0.000000	 0.000000	 0.207540
					}
				}
			}
		}
	}
	JOINT Spine
	{
		OFFSET	 0.000184	-0.007763	 0.117403
		CHANNELS 3 Zrotation Xrotation Yrotation
		JOINT Spine1
		{
			OFFSET	 0.000000	 0.000000	 0.137269
			CHANNELS 3 Zrotation Xrotation Yrotation
			JOINT Spine2
			{
				OFFSET	 0.000000	 0.000000	 0.156879
				CHANNELS 3 Zrotation Xrotation Yrotation
				JOINT LeftShoulder
				{
					OFFSET	 0.080501	-0.002496	 0.160144
					CHANNELS 3 Zrotation Xrotation Yrotation
					JOINT LeftArm
					{
						OFFSET	 0.000000	 0.000000	 0.164363
						CHANNELS 3 Zrotation Xrotation Yrotation
						JOINT LeftForeArm
						{
							OFFSET	 0.000000	 0.000000	 0.364576
							CHANNELS 3 Zrotation Xrotation Yrotation
							JOINT LeftHand
							{
								OFFSET	 0.000000	 0.000000	 0.360812
								CHANNELS 3 Zrotation Xrotation Yrotation
								JOINT LeftHandIndex1
								{
									OFFSET	 0.000000	 0.000000	 0.086006
									CHANNELS 3 Zrotation Xrotation Yrotation
									JOINT LeftHandIndex2
									{
										OFFSET	 0.000000	 0.000000	 0.047237
										CHANNELS 3 Zrotation Xrotation Yrotation
										JOINT LeftHandIndex3
										{
											OFFSET	-0.004284	-0.000551	 0.038165
											CHANNELS 3 Zrotation Xrotation Yrotation
											End Site
											{
												OFFSET	-0.004284	-0.000551	 0.038165
											}
										}
									}
								}
							}
						}
					}
				}
				JOINT Neck
				{
					OFFSET	 0.000000	 0.000000	 0.176489
					CHANNELS 3 Zrotation Xrotation Yrotation
					JOINT Head
					{
						OFFSET	 0.000000	-0.001747	 0.077940
						CHANNELS 3 Zrotation Xrotation Yrotation
						End Site
						{
							OFFSET	 0.000000	-0.001747	 0.077940
						}
					}
				}
				JOINT RightShoulder
				{
					OFFSET	-0.080363	 0.000306	 0.159706
					CHANNELS 3 Zrotation Xrotation Yrotation
					JOINT RightArm
					{
						OFFSET	 0.000000	 0.000000	 0.164196
						CHANNELS 3 Zrotation Xrotation Yrotation
						JOINT RightForeArm
						{
							OFFSET	 0.000000	 0.000000	 0.365611
							CHANNELS 3 Zrotation Xrotation Yrotation
							JOINT RightHand
							{
								OFFSET	 0.000000	 0.000000	 0.360648
								CHANNELS 3 Zrotation Xrotation Yrotation
								JOINT RightHandIndex1
								{
									OFFSET	 0.000000	 0.000000	 0.069977
									CHANNELS 3 Zrotation Xrotation Yrotation
									JOINT RightHandIndex2
									{
										OFFSET	 0.000000	 0.000000	 0.052305
										CHANNELS 3 Zrotation Xrotation Yrotation
										JOINT RightHandIndex3
										{
											OFFSET	 0.009002	-0.000782	 0.042196
											CHANNELS 3 Zrotation Xrotation Yrotation
											End Site
											{
												OFFSET	 0.009002	-0.000782	 0.042196
											}
										}
									}
								}
							}
						}
					}
				}
			}
		}
	}
}
MOTION
Frames:    7
Frame Time: 0.03333334
-0.730599	-0.005905	 1.272676	 179.612700	 0.410946	 1.646933	-17.693610	-3.228195	-179.922700	 9.314550	-14.406940	 1.964924	-31.946930	 72.431500	 10.122790	-2.385833	 28.452760	 0.000004	 12.587200	-2.445107	 177.598300	-9.200885	-10.710240	-1.682261	 24.027810	 70.692250	-8.289571	 2.384659	 28.388700	-0.000001	-9.171659	 3.575298	-0.509963	-4.240752	-0.384255	-9.972060	 13.064600	 5.343942	 12.524450	-91.776180	 78.527420	-180.000000	-10.273110	-15.351510	-11.582900	-7.627995	-0.095419	-0.502028	 8.981229	-18.364150	-6.218769	-4.130354	 21.526190	 0.991307	-5.167926	 0.731697	 3.519349	-1.378229	 35.397820	-2.634230	-0.000002	-3.783157	-0.089647	 2.866643	-4.898600	 0.122644	 89.782070	 78.203850	-180.000000	 6.258136	-2.297597	-7.251457	 7.209156	-4.740424	 45.222430	-0.584192	-22.835870	 25.115770	 5.716295	 19.173350	-3.684826	 5.027458	 0.246833	-9.377971	-2.350882	 35.473990	 5.254307
-0.727664	-0.005986	 1.272518	-177.619300	-5.212842	 1.034890	-2.079044	 3.566947	 179.525900	-3.720199	-11.879270	-1.069882	-1.279594	 73.814250	-9.397288	-2.385833	 28.452760	 0.000004	 2.195579	 4.540073	 178.271200	 1.698469	-10.319340	 0.343870	-2.808212	 72.820460	 9.286665	 2.384659	 28.388700	-0.000001	-8.073495	 6.241802	-1.349383	-3.436956	 9.576693	-1.274134	 9.160661	-6.405117	 5.884181	-91.776180	 78.527430	-180.000000	-31.763130	-3.956303	-6.429476	-13.540930	-1.661152	-18.861500	 0.081553	-26.672150	-2.507205	-4.130354	 21.526190	 0.991307	-5.167926	 0.731697	 3.519349	-1.378229	 35.397820	-2.634230	-7.778094	 0.825368	 3.240769	-1.706823	-16.993270	-3.237441	 89.782110	 78.203890	 180.000000	 2.449428	-3.885477	-8.325329	 8.371389	-3.812216	 47.179280	 31.979330	 37.158040	 28.973230	 5.716295	 19.173350	-3.684826	 5.027458	 0.246833	-9.377971	-2.350882	 35.473990	 5.254307
-0.727319	-0.006010	 1.272412	-177.297900	-5.752837	 0.983273	-0.278861	 4.035937	 179.221600	-4.890233	-12.054830	-1.332219	 1.534142	 72.725930	-11.181960	-2.385833	 28.452760	 0.000004	 1.218597	 5.343227	 178.442700	 2.540551	-10.133170	 0.486121	-3.573309	 71.316190	 9.302869	 2.384659	 28.388700	-0.000001	-8.143332	 6.616031	-1.546817	-3.460604	 10.206130	-0.274926	 8.646989	-7.310936	 5.046262	-91.776150	 78.527380	 180.000000	-33.376920	-1.505260	-2.917460	-14.285540	-2.002036	-25.951760	-1.153027	-27.807970	-2.507976	-4.130354	 21.526190	 0.991307	-5.167926	 0.731697	 3.519349	-1.378229	 35.397820	-2.634230	-8.468558	 1.152241	 3.775518	-2.291222	-17.796860	-3.943503	 89.782070	 78.203900	-180.000000	 3.196872	-3.145290	-8.951604	 9.014050	-3.401504	 49.675920	 37.723250	 42.626820	 25.280700	 5.716295	 19.173350	-3.684826	 5.027458	 0.246833	-9.377971	-2.350882	 35.473990	 5.254307
-0.726865	-0.006050	 1.272189	-176.868000	-6.480276	 0.914598	 2.140944	 4.520873	 178.730900	-6.469593	-12.627470	-1.744922	 5.153420	 71.503280	-13.458570	-2.385833	 28.452760	 0.000004	-0.124263	 6.200424	 178.717200	 3.675203	-10.456900	 0.708098	-4.711346	 69.659140	 9.444899	 2.384659	 28.388700	-0.000001	-8.310222	 7.139440	-1.792382	-3.546249	 10.945660	 0.989604	 7.922330	-8.459203	 3.941478	-91.776250	 78.527400	-179.999900	-35.322130	 2.300648	 2.501514	-15.315010	-2.260194	-36.273510	-2.798103	-29.414280	-2.565189	-4.130354	 21.526190	 0.991307	-5.167926	 0.731697	 3.519349	-1.378229	 35.397820	-2.634230	-9.405326	 1.573840	 4.510573	-3.100322	-18.859430	-4.942977	 89.782090	 78.203870	-180.000000	 5.004579	-1.345545	-10.088050	 9.878602	-2.831737	 54.497330	 48.766260	 48.415440	 16.125850	 5.716295	 19.173350	-3.684826	 5.027458	 0.246833	-9.377971	-2.350882	 35.473990	 5.254307
-0.726873	-0.006080	 1.271897	-176.741900	-6.475527	 0.962830	 2.036148	 3.983876	 178.592000	-6.457616	-14.035220	-1.932654	 4.515650	 72.406870	-12.837420	-2.385833	 28.452760	 0.000004	-0.020902	 6.075621	 178.655900	 3.624821	-11.264000	 0.752176	-4.210427	 70.359440	 8.931818	 2.384659	 28.388700	-0.000001	-8.740681	 7.116813	-1.920699	-3.815250	 10.613860	 1.015268	 7.946936	-8.238924	 3.923702	-91.776130	 78.527420	 180.000000	-34.106000	 5.808059	 8.530995	-15.506800	-3.111099	-47.127960	-2.799124	-29.384540	-2.619974	-4.130354	 21.526190	 0.991307	-5.167926	 0.731697	 3.519349	-1.378229	 35.397820	-2.634230	-9.390059	 1.533212	 4.712184	-3.072648	-18.637340	-5.342639	 89.782050	 78.203830	-180.000000	 5.166697	 0.997201	-11.792960	 10.234840	-2.996279	 60.962790	 49.355360	 44.973500	 15.779250	 5.716295	 19.173350	-3.684826	 5.027458	 0.246833	-9.377971	-2.350882	 35.473990	 5.254307
-0.726908	-0.006113	 1.271489	-176.642900	-6.413197	 1.021314	 1.797522	 3.326723	 178.435000	-6.379992	-15.700910	-2.134976	 3.429672	 73.578410	-11.824800	-2.385833	 28.452760	 0.000004	 0.150844	 5.875377	 178.577100	 3.520033	-12.274440	 0.796289	-3.615492	 71.351010	 8.365905	 2.384659	 28.388700	-0.000001	-9.262038	 7.025954	-2.046860	-4.165042	 10.146260	 0.903727	 8.009076	-7.886133	 3.999969	-91.776200	 78.527380	-180.000000	-32.611890	 10.193870	 14.844180	-15.903520	-3.997130	-58.066870	-2.726473	-29.268840	-2.664603	-4.130354	 21.526190	 0.991307	-5.167926	 0.731697	 3.519349	-1.378229	 35.397820	-2.634230	-9.326879	 1.472126	 4.876368	-3.001830	-18.363430	-5.692080	 89.782130	 78.203900	 180.000000	 4.994797	 4.126728	-13.487770	 10.637520	-3.186612	 68.419700	 48.604690	 40.431030	 15.772750	 5.716295	 19.173350	-3.684826	 5.027458	 0.246833	-9.377971	-2.350882	 35.473990	 5.254307
-0.727011	-0.006147	 1.270904	-176.559600	-6.309900	 0.958485	 1.819045	 2.618693	 178.289600	-6.488474	-17.584710	-2.416564	 2.021257	 74.989460	-10.312330	-2.385833	 28.452760	 0.000004	 0.216586	 5.527496	 178.659700	 3.557544	-13.837630	 0.904818	-3.923669	 72.643260	 8.637091	 2.384659	 28.388700	-0.000001	-9.933129	 6.839953	-1.964712	-4.624074	 9.466196	 0.494968	 8.037048	-7.289059	 4.226855	-91.776130	 78.527380	 180.000000	-31.174240	 16.657040	 22.065150	-16.658550	-4.769994	-70.011340	-2.785758	-29.314490	-2.695445	-4.130354	 21.526190	 0.991307	-5.167926	 0.731697	 3.519349	-1.378229	 35.397820	-2.634230	-9.266085	 1.383872	 4.870655	-2.952090	-18.142060	-5.734525	 89.782120	 78.203870	 180.000000	 4.488143	 8.938394	-14.982950	 11.150200	-3.373410	 77.509120	 47.442760	 35.978400	 15.280780	 5.716295	 19.173350	-3.684826	 5.027458	 0.246833	-9.377971	-2.350882	 35.473990	 5.254307
